<svg xmlns="http://www.w3.org/2000/svg" xmlns:xlink="http://www.w3.org/1999/xlink" version="1.1" width="1080" height="1080" viewBox="0 0 1080 1080" xml:space="preserve">
<desc>Created with Fabric.js 3.5.0</desc>
<defs>
</defs>
<rect x="0" y="0" width="100%" height="100%" fill="#f5f5f5"/>
<g transform="matrix(1.9795 0 0 1.9795 540.0069 540.0069)" id="445706">
<g style="" vector-effect="non-scaling-stroke">
		<g transform="matrix(1 0 0 1 0 0)" id="Layer_1">
<path style="stroke: none; stroke-width: 1; stroke-dasharray: none; stroke-linecap: butt; stroke-dashoffset: 0; stroke-linejoin: miter; stroke-miterlimit: 4; is-custom-font: none; font-file-url: none; fill: rgb(89,89,89); fill-rule: nonzero; opacity: 1;" transform=" translate(-248, -248)" d="M 424 248 c 0 -97.048 -78.952 -176 -176 -176 S 72 150.952 72 248 s 78.952 176 176 176 S 424 345.048 424 248 z M 248.008 408 c -16.728 0 -32.848 -2.6 -48.008 -7.376 V 304 h -16 v 90.552 c -8.4 -3.68 -16.424 -8.048 -24 -13.064 V 304 c 0 -22.056 17.944 -40 40 -40 h 96 c 22.056 0 40 17.944 40 40 h -51.056 l -13.792 -27.576 l -14.312 7.16 L 267.056 304 H 216 v 16 h 16 v 8 l 6.12 43.4 c 1.68 11.744 11.888 20.6 23.76 20.6 h 55.408 C 296.288 402.144 272.848 408 248.008 408 z M 184 184 c 0 -35.288 28.712 -64 64 -64 c 35.288 0 64 28.712 64 64 c 0 35.288 -28.712 64 -64 64 C 212.712 248 184 219.288 184 184 z M 344 327.432 l -5.96 41.704 c -0.552 3.912 -3.96 6.864 -7.912 6.864 H 261.88 c -3.952 0 -7.36 -2.952 -7.912 -6.864 L 248 327.432 V 320 h 27.056 l 13.792 27.576 l 14.312 -7.16 L 292.944 320 H 344 V 327.432 z M 354.504 367.072 l 5.424 -37.936 L 359.96 320 H 376 v -16 h -24 c 0 -30.872 -25.128 -56 -56 -56 h -0.208 C 315.296 233.4 328 210.184 328 184 c 0 -44.112 -35.888 -80 -80 -80 s -80 35.888 -80 80 c 0 26.184 12.704 49.4 32.208 64 H 200 c -30.872 0 -56 25.128 -56 56 v 65.344 C 109.784 339.976 88 296.52 88 248 c 0 -88.224 71.776 -160 160 -160 s 160 71.776 160 160 C 408 295.304 387.248 337.752 354.504 367.072 z" stroke-linecap="round"/>
</g>
		<g transform="matrix(1 0 0 1 122.832 -102.852)" id="Layer_1">
<path style="stroke: none; stroke-width: 1; stroke-dasharray: none; stroke-linecap: butt; stroke-dashoffset: 0; stroke-linejoin: miter; stroke-miterlimit: 4; is-custom-font: none; font-file-url: none; fill: rgb(89,89,89); fill-rule: nonzero; opacity: 1;" transform=" translate(-370.832, -145.148)" d="M 455.824 240.928 l -11.384 -7.584 l -8.872 13.312 l 29.456 19.64 l 28.64 -28.64 l -11.312 -11.312 l -10.624 10.624 C 465.952 118.56 367.816 24 248 24 v 16 C 360.328 40 452.072 129.504 455.824 240.928 z" stroke-linecap="round"/>
</g>
		<g transform="matrix(1 0 0 1 -122.832 102.852)" id="Layer_1">
<path style="stroke: none; stroke-width: 1; stroke-dasharray: none; stroke-linecap: butt; stroke-dashoffset: 0; stroke-linejoin: miter; stroke-miterlimit: 4; is-custom-font: none; font-file-url: none; fill: rgb(89,89,89); fill-rule: nonzero; opacity: 1;" transform=" translate(-125.168, -350.852)" d="M 40.176 255.072 l 11.384 7.584 l 8.872 -13.312 l -29.456 -19.64 l -28.64 28.64 l 11.312 11.312 l 10.624 -10.624 C 30.048 377.44 128.184 472 248 472 v -16 C 135.672 456 43.928 366.496 40.176 255.072 z" stroke-linecap="round"/>
</g>
		<g transform="matrix(1 0 0 1 -184 -184)" id="Layer_1">
<path style="stroke: none; stroke-width: 1; stroke-dasharray: none; stroke-linecap: butt; stroke-dashoffset: 0; stroke-linejoin: miter; stroke-miterlimit: 4; is-custom-font: none; font-file-url: none; fill: rgb(89,89,89); fill-rule: nonzero; opacity: 1;" transform=" translate(-64, -64)" d="M 64 128 c 35.288 0 64 -28.712 64 -64 S 99.288 0 64 0 S 0 28.712 0 64 C 0 99.288 28.712 128 64 128 z M 64 16 c 26.472 0 48 21.528 48 48 s -21.528 48 -48 48 S 16 90.472 16 64 S 37.528 16 64 16 z" stroke-linecap="round"/>
</g>
		<g transform="matrix(1 0 0 1 -184 -184)" id="Layer_1">
<path style="stroke: none; stroke-width: 1; stroke-dasharray: none; stroke-linecap: butt; stroke-dashoffset: 0; stroke-linejoin: miter; stroke-miterlimit: 4; is-custom-font: none; font-file-url: none; fill: rgb(89,89,89); fill-rule: nonzero; opacity: 1;" transform=" translate(-64, -64)" d="M 56 95.592 V 104 h 16 v -8.408 C 81.12 93.736 88 85.656 88 76 c 0 -11.032 -8.968 -20 -20 -20 h -8 c -2.2 0 -4 -1.8 -4 -4 s 1.8 -4 4 -4 h 8 c 2.2 0 4 1.8 4 4 v 4 h 16 v -4 c 0 -9.664 -6.88 -17.736 -16 -19.592 V 24 H 56 v 8.408 C 46.88 34.264 40 42.336 40 52 c 0 11.032 8.968 20 20 20 h 8 c 2.2 0 4 1.8 4 4 s -1.8 4 -4 4 h -8 c -2.2 0 -4 -1.8 -4 -4 v -4 H 40 v 4 C 40 85.664 46.88 93.736 56 95.592 z" stroke-linecap="round"/>
</g>
		<g transform="matrix(1 0 0 1 184 184)" id="Layer_1">
<path style="stroke: none; stroke-width: 1; stroke-dasharray: none; stroke-linecap: butt; stroke-dashoffset: 0; stroke-linejoin: miter; stroke-miterlimit: 4; is-custom-font: none; font-file-url: none; fill: rgb(89,89,89); fill-rule: nonzero; opacity: 1;" transform=" translate(-432, -432)" d="M 432 368 c -35.288 0 -64 28.712 -64 64 c 0 35.288 28.712 64 64 64 c 35.288 0 64 -28.712 64 -64 C 496 396.712 467.288 368 432 368 z M 432 480 c -26.472 0 -48 -21.528 -48 -48 s 21.528 -48 48 -48 s 48 21.528 48 48 S 458.472 480 432 480 z" stroke-linecap="round"/>
</g>
		<g transform="matrix(1 0 0 1 184 184)" id="Layer_1">
<path style="stroke: none; stroke-width: 1; stroke-dasharray: none; stroke-linecap: butt; stroke-dashoffset: 0; stroke-linejoin: miter; stroke-miterlimit: 4; is-custom-font: none; font-file-url: none; fill: rgb(89,89,89); fill-rule: nonzero; opacity: 1;" transform=" translate(-432, -432)" d="M 440 400.408 V 392 h -16 v 8.408 c -9.12 1.856 -16 9.936 -16 19.592 c 0 11.032 8.968 20 20 20 h 8 c 2.2 0 4 1.8 4 4 s -1.8 4 -4 4 h -8 c -2.2 0 -4 -1.8 -4 -4 v -4 h -16 v 4 c 0 9.664 6.88 17.736 16 19.592 V 472 h 16 v -8.408 c 9.12 -1.856 16 -9.936 16 -19.592 c 0 -11.032 -8.968 -20 -20 -20 h -8 c -2.2 0 -4 -1.8 -4 -4 s 1.8 -4 4 -4 h 8 c 2.2 0 4 1.8 4 4 v 4 h 16 v -4 C 456 410.336 449.12 402.264 440 400.408 z" stroke-linecap="round"/>
</g>
		<g transform="matrix(1 0 0 1 -208 176)" id="Layer_1">
<rect style="stroke: none; stroke-width: 1; stroke-dasharray: none; stroke-linecap: butt; stroke-dashoffset: 0; stroke-linejoin: miter; stroke-miterlimit: 4; is-custom-font: none; font-file-url: none; fill: rgb(89,89,89); fill-rule: nonzero; opacity: 1;" x="-8" y="-8" rx="0" ry="0" width="16" height="16"/>
</g>
		<g transform="matrix(0.7071 0.7071 -0.7071 0.7071 -230.608 185.3551)" id="Layer_1">
<rect style="stroke: none; stroke-width: 1; stroke-dasharray: none; stroke-linecap: butt; stroke-dashoffset: 0; stroke-linejoin: miter; stroke-miterlimit: 4; is-custom-font: none; font-file-url: none; fill: rgb(89,89,89); fill-rule: nonzero; opacity: 1;" x="-8" y="-8" rx="0" ry="0" width="16" height="16"/>
</g>
		<g transform="matrix(1 0 0 1 -240 208)" id="Layer_1">
<rect style="stroke: none; stroke-width: 1; stroke-dasharray: none; stroke-linecap: butt; stroke-dashoffset: 0; stroke-linejoin: miter; stroke-miterlimit: 4; is-custom-font: none; font-file-url: none; fill: rgb(89,89,89); fill-rule: nonzero; opacity: 1;" x="-8" y="-8" rx="0" ry="0" width="16" height="16"/>
</g>
		<g transform="matrix(-0.7071 -0.7071 0.7071 -0.7071 -230.6074 230.6314)" id="Layer_1">
<rect style="stroke: none; stroke-width: 1; stroke-dasharray: none; stroke-linecap: butt; stroke-dashoffset: 0; stroke-linejoin: miter; stroke-miterlimit: 4; is-custom-font: none; font-file-url: none; fill: rgb(89,89,89); fill-rule: nonzero; opacity: 1;" x="-8" y="-8" rx="0" ry="0" width="16" height="16"/>
</g>
		<g transform="matrix(1 0 0 1 -208 240)" id="Layer_1">
<rect style="stroke: none; stroke-width: 1; stroke-dasharray: none; stroke-linecap: butt; stroke-dashoffset: 0; stroke-linejoin: miter; stroke-miterlimit: 4; is-custom-font: none; font-file-url: none; fill: rgb(89,89,89); fill-rule: nonzero; opacity: 1;" x="-8" y="-8" rx="0" ry="0" width="16" height="16"/>
</g>
		<g transform="matrix(-0.7071 -0.7071 0.7071 -0.7071 -185.4125 230.6369)" id="Layer_1">
<rect style="stroke: none; stroke-width: 1; stroke-dasharray: none; stroke-linecap: butt; stroke-dashoffset: 0; stroke-linejoin: miter; stroke-miterlimit: 4; is-custom-font: none; font-file-url: none; fill: rgb(89,89,89); fill-rule: nonzero; opacity: 1;" x="-8" y="-8" rx="0" ry="0" width="16" height="16"/>
</g>
		<g transform="matrix(1 0 0 1 -176 208)" id="Layer_1">
<rect style="stroke: none; stroke-width: 1; stroke-dasharray: none; stroke-linecap: butt; stroke-dashoffset: 0; stroke-linejoin: miter; stroke-miterlimit: 4; is-custom-font: none; font-file-url: none; fill: rgb(89,89,89); fill-rule: nonzero; opacity: 1;" x="-8" y="-8" rx="0" ry="0" width="16" height="16"/>
</g>
		<g transform="matrix(0.7071 0.7071 -0.7071 0.7071 -185.3893 185.36)" id="Layer_1">
<rect style="stroke: none; stroke-width: 1; stroke-dasharray: none; stroke-linecap: butt; stroke-dashoffset: 0; stroke-linejoin: miter; stroke-miterlimit: 4; is-custom-font: none; font-file-url: none; fill: rgb(89,89,89); fill-rule: nonzero; opacity: 1;" x="-8" y="-8" rx="0" ry="0" width="16" height="16"/>
</g>
		<g transform="matrix(1 0 0 1 208 -240)" id="Layer_1">
<rect style="stroke: none; stroke-width: 1; stroke-dasharray: none; stroke-linecap: butt; stroke-dashoffset: 0; stroke-linejoin: miter; stroke-miterlimit: 4; is-custom-font: none; font-file-url: none; fill: rgb(89,89,89); fill-rule: nonzero; opacity: 1;" x="-8" y="-8" rx="0" ry="0" width="16" height="16"/>
</g>
		<g transform="matrix(0.7071 0.7071 -0.7071 0.7071 185.362 -230.6171)" id="Layer_1">
<rect style="stroke: none; stroke-width: 1; stroke-dasharray: none; stroke-linecap: butt; stroke-dashoffset: 0; stroke-linejoin: miter; stroke-miterlimit: 4; is-custom-font: none; font-file-url: none; fill: rgb(89,89,89); fill-rule: nonzero; opacity: 1;" x="-8" y="-8" rx="0" ry="0" width="16" height="16"/>
</g>
		<g transform="matrix(1 0 0 1 176 -208)" id="Layer_1">
<rect style="stroke: none; stroke-width: 1; stroke-dasharray: none; stroke-linecap: butt; stroke-dashoffset: 0; stroke-linejoin: miter; stroke-miterlimit: 4; is-custom-font: none; font-file-url: none; fill: rgb(89,89,89); fill-rule: nonzero; opacity: 1;" x="-8" y="-8" rx="0" ry="0" width="16" height="16"/>
</g>
		<g transform="matrix(-0.7071 -0.7071 0.7071 -0.7071 185.3626 -185.3605)" id="Layer_1">
<rect style="stroke: none; stroke-width: 1; stroke-dasharray: none; stroke-linecap: butt; stroke-dashoffset: 0; stroke-linejoin: miter; stroke-miterlimit: 4; is-custom-font: none; font-file-url: none; fill: rgb(89,89,89); fill-rule: nonzero; opacity: 1;" x="-8" y="-8" rx="0" ry="0" width="16" height="16"/>
</g>
		<g transform="matrix(1 0 0 1 208 -176)" id="Layer_1">
<rect style="stroke: none; stroke-width: 1; stroke-dasharray: none; stroke-linecap: butt; stroke-dashoffset: 0; stroke-linejoin: miter; stroke-miterlimit: 4; is-custom-font: none; font-file-url: none; fill: rgb(89,89,89); fill-rule: nonzero; opacity: 1;" x="-8" y="-8" rx="0" ry="0" width="16" height="16"/>
</g>
		<g transform="matrix(-0.7071 0.7071 -0.7071 -0.7071 230.6253 -185.3729)" id="Layer_1">
<rect style="stroke: none; stroke-width: 1; stroke-dasharray: none; stroke-linecap: butt; stroke-dashoffset: 0; stroke-linejoin: miter; stroke-miterlimit: 4; is-custom-font: none; font-file-url: none; fill: rgb(89,89,89); fill-rule: nonzero; opacity: 1;" x="-8" y="-8" rx="0" ry="0" width="16" height="16"/>
</g>
		<g transform="matrix(1 0 0 1 240 -208)" id="Layer_1">
<rect style="stroke: none; stroke-width: 1; stroke-dasharray: none; stroke-linecap: butt; stroke-dashoffset: 0; stroke-linejoin: miter; stroke-miterlimit: 4; is-custom-font: none; font-file-url: none; fill: rgb(89,89,89); fill-rule: nonzero; opacity: 1;" x="-8" y="-8" rx="0" ry="0" width="16" height="16"/>
</g>
		<g transform="matrix(0.7071 0.7071 -0.7071 0.7071 230.6156 -230.6235)" id="Layer_1">
<rect style="stroke: none; stroke-width: 1; stroke-dasharray: none; stroke-linecap: butt; stroke-dashoffset: 0; stroke-linejoin: miter; stroke-miterlimit: 4; is-custom-font: none; font-file-url: none; fill: rgb(89,89,89); fill-rule: nonzero; opacity: 1;" x="-8" y="-8" rx="0" ry="0" width="16" height="16"/>
</g>
</g>
</g>
</svg>