<svg xmlns="http://www.w3.org/2000/svg" xmlns:xlink="http://www.w3.org/1999/xlink" version="1.1" width="1080" height="1080" viewBox="0 0 1080 1080" xml:space="preserve">
<desc>Created with Fabric.js 3.5.0</desc>
<defs>
</defs>
<rect x="0" y="0" width="100%" height="100%" fill="#f5f5f5"/>
<g transform="matrix(3.2969 0 0 3.2969 539.9944 539.9944)" id="738471">
<g style="" vector-effect="non-scaling-stroke">
		<g transform="matrix(1 0 0 1 -114.286 125.0875)" id="Layer_1">
<path style="stroke: none; stroke-width: 1; stroke-dasharray: none; stroke-linecap: butt; stroke-dashoffset: 0; stroke-linejoin: miter; stroke-miterlimit: 4; is-custom-font: none; font-file-url: none; fill: rgb(89,89,89); fill-rule: nonzero; opacity: 1;" transform=" translate(-34.6125, -273.986)" d="M 1.279 269.224 v 9.524 v 19.048 h 66.667 v -19.048 v -9.524 v -19.048 H 1.279 V 269.224 z M 10.803 259.7 h 47.619 v 9.524 H 10.803 V 259.7 z M 10.803 278.747 h 47.619 v 9.524 H 10.803 V 278.747 z" stroke-linecap="round"/>
</g>
		<g transform="matrix(1 0 0 1 -38.096 115.5635)" id="Layer_1">
<path style="stroke: none; stroke-width: 1; stroke-dasharray: none; stroke-linecap: butt; stroke-dashoffset: 0; stroke-linejoin: miter; stroke-miterlimit: 4; is-custom-font: none; font-file-url: none; fill: rgb(89,89,89); fill-rule: nonzero; opacity: 1;" transform=" translate(-110.8025, -264.462)" d="M 77.469 250.176 v 9.524 v 9.524 v 9.524 v 19.048 h 66.667 v -19.048 v -9.524 V 259.7 v -9.524 v -19.048 H 77.469 V 250.176 z M 86.993 240.652 h 47.619 v 9.524 H 86.993 V 240.652 z M 86.993 259.7 h 47.619 v 9.524 H 86.993 V 259.7 z M 86.993 278.747 h 47.619 v 9.524 H 86.993 V 278.747 z" stroke-linecap="round"/>
</g>
		<g transform="matrix(1 0 0 1 38.096 106.04)" id="Layer_1">
<path style="stroke: none; stroke-width: 1; stroke-dasharray: none; stroke-linecap: butt; stroke-dashoffset: 0; stroke-linejoin: miter; stroke-miterlimit: 4; is-custom-font: none; font-file-url: none; fill: rgb(89,89,89); fill-rule: nonzero; opacity: 1;" transform=" translate(-186.9945, -254.9385)" d="M 153.661 231.129 v 9.524 v 9.524 v 9.524 v 9.524 v 9.524 v 19.048 h 66.667 v -19.048 v -9.524 V 259.7 v -9.524 v -9.524 v -9.524 V 212.08 h -66.667 V 231.129 z M 163.183 221.605 h 47.619 v 9.524 h -47.619 V 221.605 z M 163.183 240.652 h 47.619 v 9.524 h -47.619 V 240.652 z M 163.183 259.7 h 47.619 v 9.524 h -47.619 V 259.7 z M 163.183 278.747 h 47.619 v 9.524 h -47.619 V 278.747 z" stroke-linecap="round"/>
</g>
		<g transform="matrix(1 0 0 1 114.286 96.516)" id="Layer_1">
<path style="stroke: none; stroke-width: 1; stroke-dasharray: none; stroke-linecap: butt; stroke-dashoffset: 0; stroke-linejoin: miter; stroke-miterlimit: 4; is-custom-font: none; font-file-url: none; fill: rgb(89,89,89); fill-rule: nonzero; opacity: 1;" transform=" translate(-263.1845, -245.4145)" d="M 229.851 193.032 v 0.001 v 19.048 v 9.524 v 9.524 v 9.524 v 9.524 v 9.524 v 9.524 v 9.524 v 19.048 h 66.667 v -19.048 v -9.524 V 259.7 v -9.524 v -9.524 v -9.524 v -9.524 v -9.524 v -19.048 H 229.851 z M 239.375 202.557 h 47.619 v 9.524 h -47.619 V 202.557 z M 286.994 288.271 h -47.619 v -9.524 h 47.619 V 288.271 z M 286.994 269.224 h -47.619 V 259.7 h 47.619 V 269.224 z M 286.994 250.176 h -47.619 v -9.524 h 47.619 V 250.176 z M 286.994 231.129 h -47.619 v -9.524 h 47.619 V 231.129 z" stroke-linecap="round"/>
</g>
		<g transform="matrix(1 0 0 1 -0.0005 32.231)" id="Layer_1">
<path style="stroke: none; stroke-width: 1; stroke-dasharray: none; stroke-linecap: butt; stroke-dashoffset: 0; stroke-linejoin: miter; stroke-miterlimit: 4; is-custom-font: none; font-file-url: none; fill: rgb(89,89,89); fill-rule: nonzero; opacity: 1;" transform=" translate(-148.898, -181.1295)" d="M 258.422 183.51 h 9.524 c 0 -23.633 -19.224 -42.857 -42.857 -42.857 c -21.21 0 -38.867 15.486 -42.267 35.743 c -7.843 -10.148 -20.133 -16.695 -33.924 -16.695 c -21.21 0 -38.867 15.486 -42.267 35.743 c -7.843 -10.148 -20.133 -16.695 -33.924 -16.695 c -23.633 0 -42.857 19.224 -42.857 42.857 h 9.524 c 0 -18.376 14.957 -33.333 33.333 -33.333 s 33.333 14.957 33.333 33.333 h 9.524 v -19.048 c 0 -18.376 14.957 -33.333 33.333 -33.333 c 18.376 0 33.333 14.957 33.333 33.333 h 9.524 V 183.51 c 0 -18.376 14.957 -33.333 33.333 -33.333 S 258.422 165.133 258.422 183.51 z" stroke-linecap="round"/>
</g>
		<g transform="matrix(1 0 0 1 -114.2865 86.9925)" id="Layer_1">
<rect style="stroke: none; stroke-width: 1; stroke-dasharray: none; stroke-linecap: butt; stroke-dashoffset: 0; stroke-linejoin: miter; stroke-miterlimit: 4; is-custom-font: none; font-file-url: none; fill: rgb(89,89,89); fill-rule: nonzero; opacity: 1;" x="-4.762" y="-4.762" rx="0" ry="0" width="9.524" height="9.524"/>
</g>
		<g transform="matrix(1 0 0 1 95.2385 -60.6275)" id="Layer_1">
<rect style="stroke: none; stroke-width: 1; stroke-dasharray: none; stroke-linecap: butt; stroke-dashoffset: 0; stroke-linejoin: miter; stroke-miterlimit: 4; is-custom-font: none; font-file-url: none; fill: rgb(89,89,89); fill-rule: nonzero; opacity: 1;" x="-4.762" y="-42.857" rx="0" ry="0" width="9.524" height="85.714"/>
</g>
		<g transform="matrix(1 0 0 1 114.2855 -127.0225)" id="Layer_1">
<polygon style="stroke: none; stroke-width: 1; stroke-dasharray: none; stroke-linecap: butt; stroke-dashoffset: 0; stroke-linejoin: miter; stroke-miterlimit: 4; is-custom-font: none; font-file-url: none; fill: rgb(89,89,89); fill-rule: nonzero; opacity: 1;" points="0,-7.238 24.957,21.876 32.186,15.676 0,-21.876 -32.186,15.676 -24.957,21.876 "/>
</g>
		<g transform="matrix(1 0 0 1 133.3325 -60.6275)" id="Layer_1">
<rect style="stroke: none; stroke-width: 1; stroke-dasharray: none; stroke-linecap: butt; stroke-dashoffset: 0; stroke-linejoin: miter; stroke-miterlimit: 4; is-custom-font: none; font-file-url: none; fill: rgb(89,89,89); fill-rule: nonzero; opacity: 1;" x="-4.762" y="-42.857" rx="0" ry="0" width="9.524" height="85.714"/>
</g>
		<g transform="matrix(1 0 0 1 114.2855 -41.5795)" id="Layer_1">
<rect style="stroke: none; stroke-width: 1; stroke-dasharray: none; stroke-linecap: butt; stroke-dashoffset: 0; stroke-linejoin: miter; stroke-miterlimit: 4; is-custom-font: none; font-file-url: none; fill: rgb(89,89,89); fill-rule: nonzero; opacity: 1;" x="-4.762" y="-4.762" rx="0" ry="0" width="9.524" height="9.524"/>
</g>
		<g transform="matrix(1 0 0 1 114.2855 -84.437)" id="Layer_1">
<rect style="stroke: none; stroke-width: 1; stroke-dasharray: none; stroke-linecap: butt; stroke-dashoffset: 0; stroke-linejoin: miter; stroke-miterlimit: 4; is-custom-font: none; font-file-url: none; fill: rgb(89,89,89); fill-rule: nonzero; opacity: 1;" x="-4.762" y="-28.5715" rx="0" ry="0" width="9.524" height="57.143"/>
</g>
		<g transform="matrix(1 0 0 1 114.2855 -22.5315)" id="Layer_1">
<rect style="stroke: none; stroke-width: 1; stroke-dasharray: none; stroke-linecap: butt; stroke-dashoffset: 0; stroke-linejoin: miter; stroke-miterlimit: 4; is-custom-font: none; font-file-url: none; fill: rgb(89,89,89); fill-rule: nonzero; opacity: 1;" x="-4.762" y="-4.762" rx="0" ry="0" width="9.524" height="9.524"/>
</g>
		<g transform="matrix(1 0 0 1 114.2855 -3.4845)" id="Layer_1">
<rect style="stroke: none; stroke-width: 1; stroke-dasharray: none; stroke-linecap: butt; stroke-dashoffset: 0; stroke-linejoin: miter; stroke-miterlimit: 4; is-custom-font: none; font-file-url: none; fill: rgb(89,89,89); fill-rule: nonzero; opacity: 1;" x="-4.762" y="-4.762" rx="0" ry="0" width="9.524" height="9.524"/>
</g>
		<g transform="matrix(1 0 0 1 -80.9525 -84.4365)" id="Layer_1">
<path style="stroke: none; stroke-width: 1; stroke-dasharray: none; stroke-linecap: butt; stroke-dashoffset: 0; stroke-linejoin: miter; stroke-miterlimit: 4; is-custom-font: none; font-file-url: none; fill: rgb(89,89,89); fill-rule: nonzero; opacity: 1;" transform=" translate(-67.946, -64.462)" d="M 67.946 93.033 c 41.814 0 60.233 -24.724 61 -25.776 l 2.024 -2.795 l -2.029 -2.795 c -0.762 -1.052 -19.181 -25.776 -60.995 -25.776 c -41.814 0 -60.233 24.724 -61 25.776 l -2.024 2.795 l 2.029 2.795 C 7.712 68.31 26.131 93.033 67.946 93.033 z M 118.774 64.443 c -3.929 4.009 -12.681 11.381 -26.962 15.69 c 2.967 -4.505 4.705 -9.886 4.705 -15.671 c 0 -5.805 -1.752 -11.205 -4.738 -15.719 C 106.136 53.029 114.85 60.405 118.774 64.443 z M 67.946 45.414 c 10.505 0 19.048 8.543 19.048 19.048 S 78.451 83.51 67.946 83.51 s -19.047 -8.543 -19.047 -19.048 S 57.441 45.414 67.946 45.414 z M 44.079 48.79 c -2.967 4.505 -4.705 9.886 -4.705 15.671 c 0 5.805 1.752 11.205 4.738 15.719 c -14.357 -4.286 -23.071 -11.662 -26.995 -15.7 C 21.045 60.471 29.798 53.1 44.079 48.79 z" stroke-linecap="round"/>
</g>
		<g transform="matrix(1 0 0 1 -80.9535 -136.8175)" id="Layer_1">
<rect style="stroke: none; stroke-width: 1; stroke-dasharray: none; stroke-linecap: butt; stroke-dashoffset: 0; stroke-linejoin: miter; stroke-miterlimit: 4; is-custom-font: none; font-file-url: none; fill: rgb(89,89,89); fill-rule: nonzero; opacity: 1;" x="-4.762" y="-9.524" rx="0" ry="0" width="9.524" height="19.048"/>
</g>
		<g transform="matrix(0.5547 0.8321 -0.8321 0.5547 -119.048 -129.6723)" id="Layer_1">
<rect style="stroke: none; stroke-width: 1; stroke-dasharray: none; stroke-linecap: butt; stroke-dashoffset: 0; stroke-linejoin: miter; stroke-miterlimit: 4; is-custom-font: none; font-file-url: none; fill: rgb(89,89,89); fill-rule: nonzero; opacity: 1;" x="-8.5865" y="-4.762" rx="0" ry="0" width="17.173" height="9.524"/>
</g>
		<g transform="matrix(0.8321 0.5547 -0.5547 0.8321 -42.8562 -129.6737)" id="Layer_1">
<rect style="stroke: none; stroke-width: 1; stroke-dasharray: none; stroke-linecap: butt; stroke-dashoffset: 0; stroke-linejoin: miter; stroke-miterlimit: 4; is-custom-font: none; font-file-url: none; fill: rgb(89,89,89); fill-rule: nonzero; opacity: 1;" x="-4.762" y="-8.5865" rx="0" ry="0" width="9.524" height="17.173"/>
</g>
		<g transform="matrix(1 0 0 1 -80.9535 -32.0555)" id="Layer_1">
<rect style="stroke: none; stroke-width: 1; stroke-dasharray: none; stroke-linecap: butt; stroke-dashoffset: 0; stroke-linejoin: miter; stroke-miterlimit: 4; is-custom-font: none; font-file-url: none; fill: rgb(89,89,89); fill-rule: nonzero; opacity: 1;" x="-4.762" y="-9.524" rx="0" ry="0" width="9.524" height="19.048"/>
</g>
		<g transform="matrix(-0.8321 0.5547 -0.5547 -0.8321 -42.8632 -39.1953)" id="Layer_1">
<rect style="stroke: none; stroke-width: 1; stroke-dasharray: none; stroke-linecap: butt; stroke-dashoffset: 0; stroke-linejoin: miter; stroke-miterlimit: 4; is-custom-font: none; font-file-url: none; fill: rgb(89,89,89); fill-rule: nonzero; opacity: 1;" x="-4.762" y="-8.5865" rx="0" ry="0" width="9.524" height="17.173"/>
</g>
		<g transform="matrix(-0.5547 0.8321 -0.8321 -0.5547 -119.0502 -39.2027)" id="Layer_1">
<rect style="stroke: none; stroke-width: 1; stroke-dasharray: none; stroke-linecap: butt; stroke-dashoffset: 0; stroke-linejoin: miter; stroke-miterlimit: 4; is-custom-font: none; font-file-url: none; fill: rgb(89,89,89); fill-rule: nonzero; opacity: 1;" x="-8.5865" y="-4.762" rx="0" ry="0" width="17.173" height="9.524"/>
</g>
</g>
</g>
</svg>