<svg xmlns="http://www.w3.org/2000/svg" xmlns:xlink="http://www.w3.org/1999/xlink" version="1.1" width="1080" height="1080" viewBox="0 0 1080 1080" xml:space="preserve">
<desc>Created with Fabric.js 3.5.0</desc>
<defs>
</defs>
<rect x="0" y="0" width="100%" height="100%" fill="#f5f5f5"/>
<g transform="matrix(1.9176 0 0 1.9176 539.9965 539.9965)" id="464446">
<g style="" vector-effect="non-scaling-stroke">
		<g transform="matrix(1 0 0 1 0 0.0005)" id="Layer_1">
<path style="stroke: none; stroke-width: 1; stroke-dasharray: none; stroke-linecap: butt; stroke-dashoffset: 0; stroke-linejoin: miter; stroke-miterlimit: 4; is-custom-font: none; font-file-url: none; fill: rgb(89,89,89); fill-rule: nonzero; opacity: 1;" transform=" translate(-256, -256.0005)" d="M 503.983 495.967 h -9.086 V 8.017 c 0 -4.427 -3.589 -8.017 -8.017 -8.017 H 281.653 c -4.427 0 -8.017 3.589 -8.017 8.017 v 60.392 H 144.835 c -4.427 0 -8.017 3.589 -8.017 8.017 v 111.699 H 16.568 C 7.432 188.125 0 195.557 0 204.693 v 171.023 c 0 9.136 7.432 16.568 16.568 16.568 h 120.249 v 103.683 h -9.085 c -4.427 0 -8.017 3.588 -8.017 8.017 c 0 4.428 3.589 8.017 8.017 8.017 h 376.251 c 4.427 0 8.017 -3.588 8.017 -8.017 C 512 499.555 508.411 495.967 503.983 495.967 z M 273.637 495.967 H 152.851 V 392.284 h 18.172 v 17.637 c 0 4.427 3.589 8.017 8.017 8.017 s 8.017 -3.589 8.017 -8.017 v -17.637 h 18.171 v 17.637 c 0 4.427 3.589 8.017 8.017 8.017 s 8.017 -3.589 8.017 -8.017 v -17.637 h 18.171 v 17.637 c 0 4.427 3.589 8.017 8.017 8.017 s 8.017 -3.589 8.017 -8.017 v -17.637 h 17.637 c 0.181 0 0.357 -0.015 0.534 -0.027 V 495.967 z M 273.637 342.046 h -39.262 c 12.885 -12.46 21.09 -31.071 21.09 -51.841 s -8.205 -39.381 -21.09 -51.841 h 39.262 V 342.046 z M 152.852 290.205 c 0 -28.585 19.42 -51.841 43.29 -51.841 s 43.29 23.256 43.29 51.841 s -19.42 51.841 -43.29 51.841 S 152.852 318.79 152.852 290.205 z M 157.909 342.046 H 83.679 c -3.254 -16.866 -16.575 -30.188 -33.441 -33.441 v -36.801 c 16.866 -3.254 30.188 -16.575 33.441 -33.441 h 74.23 c -12.887 12.461 -21.091 31.072 -21.091 51.842 S 145.023 329.586 157.909 342.046 z M 273.637 222.33 H 76.426 c -4.427 0 -8.017 3.589 -8.017 8.017 c 0 14.44 -11.748 26.188 -26.188 26.188 c -4.427 0 -8.017 3.589 -8.017 8.017 v 51.307 c 0 4.427 3.589 8.017 8.017 8.017 c 14.44 0 26.188 11.748 26.188 26.188 c 0 4.427 3.589 8.017 8.017 8.017 h 197.211 v 18.198 c -0.177 -0.012 -0.354 -0.027 -0.534 -0.027 H 16.568 c -0.295 0 -0.534 -0.239 -0.534 -0.534 V 204.693 c 0 -0.295 0.239 -0.534 0.534 -0.534 h 256.534 c 0.181 0 0.357 -0.015 0.534 -0.027 V 222.33 z M 273.637 188.152 c -0.177 -0.012 -0.354 -0.027 -0.534 -0.027 h -17.637 v -17.637 c 0 -4.427 -3.589 -8.017 -8.017 -8.017 s -8.017 3.589 -8.017 8.017 v 17.637 h -18.171 v -17.637 c 0 -4.427 -3.589 -8.017 -8.017 -8.017 s -8.017 3.589 -8.017 8.017 v 17.637 h -18.171 v -17.637 c 0 -4.427 -3.589 -8.017 -8.017 -8.017 s -8.017 3.589 -8.017 8.017 v 17.637 h -18.171 V 84.443 h 120.785 V 188.152 z M 359.148 495.967 h -35.273 v -43.825 h 35.273 V 495.967 z M 359.148 436.109 h -35.273 v -18.171 h 35.273 V 436.109 z M 359.148 401.904 h -35.273 v -43.825 h 35.273 V 401.904 z M 444.66 495.967 h -35.273 v -43.825 h 35.273 V 495.967 z M 444.66 436.109 h -35.273 v -18.171 h 35.273 V 436.109 z M 444.66 401.904 h -35.273 v -43.825 h 35.273 V 401.904 z M 478.864 495.967 h -18.171 V 350.063 c 0 -4.427 -3.589 -8.017 -8.017 -8.017 H 401.37 c -4.427 0 -8.017 3.589 -8.017 8.017 v 145.904 h -18.171 V 350.063 c 0 -4.427 -3.589 -8.017 -8.017 -8.017 h -51.307 c -4.427 0 -8.017 3.589 -8.017 8.017 v 145.904 H 289.67 V 306.772 h 18.171 v 9.086 c 0 4.427 3.589 8.017 8.017 8.017 h 51.307 c 4.427 0 8.017 -3.589 8.017 -8.017 v -9.086 h 18.171 v 9.086 c 0 4.427 3.589 8.017 8.017 8.017 h 51.307 c 4.427 0 8.017 -3.589 8.017 -8.017 v -9.086 h 18.171 V 495.967 z M 323.875 307.841 v -52.376 h 35.273 v 52.376 H 323.875 z M 409.386 307.841 v -52.376 h 35.273 v 52.376 H 409.386 z M 478.864 290.739 h -18.171 v -43.29 c 0 -4.427 -3.589 -8.017 -8.017 -8.017 H 401.37 c -4.427 0 -8.017 3.589 -8.017 8.017 v 43.29 h -18.171 v -43.29 c 0 -4.427 -3.589 -8.017 -8.017 -8.017 h -51.307 c -4.427 0 -8.017 3.589 -8.017 8.017 v 43.29 H 289.67 V 16.033 h 189.194 V 290.739 z" stroke-linecap="round"/>
</g>
		<g transform="matrix(1 0 0 1 -213.779 -25.654)" id="Layer_1">
<path style="stroke: none; stroke-width: 1; stroke-dasharray: none; stroke-linecap: butt; stroke-dashoffset: 0; stroke-linejoin: miter; stroke-miterlimit: 4; is-custom-font: none; font-file-url: none; fill: rgb(89,89,89); fill-rule: nonzero; opacity: 1;" transform=" translate(-42.221, -230.346)" d="M 42.221 222.287 c -4.427 0 -8.059 3.632 -8.059 8.059 s 3.632 8.059 8.059 8.059 c 4.427 0 8.059 -3.632 8.059 -8.059 S 46.649 222.287 42.221 222.287 z" stroke-linecap="round"/>
</g>
		<g transform="matrix(1 0 0 1 -213.779 94.105)" id="Layer_1">
<path style="stroke: none; stroke-width: 1; stroke-dasharray: none; stroke-linecap: butt; stroke-dashoffset: 0; stroke-linejoin: miter; stroke-miterlimit: 4; is-custom-font: none; font-file-url: none; fill: rgb(89,89,89); fill-rule: nonzero; opacity: 1;" transform=" translate(-42.221, -350.105)" d="M 42.221 342.046 c -4.427 0 -8.059 3.632 -8.059 8.059 s 3.632 8.059 8.059 8.059 s 8.059 -3.632 8.059 -8.059 S 46.649 342.046 42.221 342.046 z" stroke-linecap="round"/>
</g>
		<g transform="matrix(1 0 0 1 -162.472 34.205)" id="Layer_1">
<path style="stroke: none; stroke-width: 1; stroke-dasharray: none; stroke-linecap: butt; stroke-dashoffset: 0; stroke-linejoin: miter; stroke-miterlimit: 4; is-custom-font: none; font-file-url: none; fill: rgb(89,89,89); fill-rule: nonzero; opacity: 1;" transform=" translate(-93.528, -290.205)" d="M 93.528 265.086 c -13.851 0 -25.119 11.268 -25.119 25.119 c 0 13.851 11.268 25.119 25.119 25.119 s 25.119 -11.268 25.119 -25.119 C 118.647 276.354 107.379 265.086 93.528 265.086 z M 93.528 299.29 c -5.01 0 -9.086 -4.076 -9.086 -9.086 c 0 -5.01 4.076 -9.086 9.086 -9.086 s 9.086 4.076 9.086 9.086 C 102.614 295.215 98.538 299.29 93.528 299.29 z" stroke-linecap="round"/>
</g>
		<g transform="matrix(1 0 0 1 -59.8575 34.204)" id="Layer_1">
<path style="stroke: none; stroke-width: 1; stroke-dasharray: none; stroke-linecap: butt; stroke-dashoffset: 0; stroke-linejoin: miter; stroke-miterlimit: 4; is-custom-font: none; font-file-url: none; fill: rgb(89,89,89); fill-rule: nonzero; opacity: 1;" transform=" translate(-196.1425, -290.204)" d="M 198.533 282.552 c -11.244 -3.513 -11.471 -5.356 -11.477 -6.696 c 0.397 -0.948 3.651 -3.289 9.086 -3.289 c 5.524 0 8.749 2.383 9.102 3.331 c 1.543 4.149 6.156 6.262 10.308 4.72 c 4.149 -1.543 6.263 -6.159 4.72 -10.308 c -2.31 -6.211 -8.39 -10.882 -16.112 -12.807 V 256 c 0 -4.427 -3.589 -8.017 -8.017 -8.017 c -4.427 0 -8.017 3.589 -8.017 8.017 v 1.505 c -10.037 2.509 -17.102 9.639 -17.102 18.27 c 0 14.979 14.785 19.599 22.728 22.082 c 11.244 3.513 11.471 5.356 11.477 6.696 c -0.397 0.948 -3.651 3.289 -9.086 3.289 c -5.524 0 -8.749 -2.383 -9.102 -3.331 c -1.543 -4.151 -6.156 -6.264 -10.308 -4.72 c -4.149 1.543 -6.263 6.159 -4.72 10.308 c 2.31 6.211 8.39 10.882 16.112 12.807 v 1.502 c 0 4.427 3.589 8.017 8.017 8.017 s 8.017 -3.589 8.017 -8.017 v -1.505 c 10.037 -2.509 17.102 -9.639 17.102 -18.27 C 221.261 289.655 206.476 285.035 198.533 282.552 z" stroke-linecap="round"/>
</g>
		<g transform="matrix(1 0 0 1 85.5115 -179.5735)" id="Layer_1">
<path style="stroke: none; stroke-width: 1; stroke-dasharray: none; stroke-linecap: butt; stroke-dashoffset: 0; stroke-linejoin: miter; stroke-miterlimit: 4; is-custom-font: none; font-file-url: none; fill: rgb(89,89,89); fill-rule: nonzero; opacity: 1;" transform=" translate(-341.5115, -76.4265)" d="M 367.165 34.205 h -51.307 c -4.427 0 -8.017 3.589 -8.017 8.017 v 68.409 c 0 4.427 3.589 8.017 8.017 8.017 h 51.307 c 4.427 0 8.017 -3.589 8.017 -8.017 V 42.221 C 375.182 37.794 371.592 34.205 367.165 34.205 z M 359.148 102.614 h -35.273 V 50.238 h 35.273 V 102.614 z" stroke-linecap="round"/>
</g>
		<g transform="matrix(1 0 0 1 171.0235 -179.5735)" id="Layer_1">
<path style="stroke: none; stroke-width: 1; stroke-dasharray: none; stroke-linecap: butt; stroke-dashoffset: 0; stroke-linejoin: miter; stroke-miterlimit: 4; is-custom-font: none; font-file-url: none; fill: rgb(89,89,89); fill-rule: nonzero; opacity: 1;" transform=" translate(-427.0235, -76.4265)" d="M 452.676 34.205 H 401.37 c -4.427 0 -8.017 3.589 -8.017 8.017 v 68.409 c 0 4.427 3.589 8.017 8.017 8.017 h 51.307 c 4.427 0 8.017 -3.589 8.017 -8.017 V 42.221 C 460.693 37.794 457.104 34.205 452.676 34.205 z M 444.66 102.614 h -35.273 V 50.238 h 35.273 V 102.614 z" stroke-linecap="round"/>
</g>
		<g transform="matrix(1 0 0 1 85.5115 -76.9605)" id="Layer_1">
<path style="stroke: none; stroke-width: 1; stroke-dasharray: none; stroke-linecap: butt; stroke-dashoffset: 0; stroke-linejoin: miter; stroke-miterlimit: 4; is-custom-font: none; font-file-url: none; fill: rgb(89,89,89); fill-rule: nonzero; opacity: 1;" transform=" translate(-341.5115, -179.0395)" d="M 367.165 136.818 h -51.307 c -4.427 0 -8.017 3.589 -8.017 8.017 v 68.409 c 0 4.427 3.589 8.017 8.017 8.017 h 51.307 c 4.427 0 8.017 -3.589 8.017 -8.017 v -68.409 C 375.182 140.408 371.592 136.818 367.165 136.818 z M 359.148 205.228 h -35.273 v -52.376 h 35.273 V 205.228 z" stroke-linecap="round"/>
</g>
		<g transform="matrix(1 0 0 1 171.0235 -76.9605)" id="Layer_1">
<path style="stroke: none; stroke-width: 1; stroke-dasharray: none; stroke-linecap: butt; stroke-dashoffset: 0; stroke-linejoin: miter; stroke-miterlimit: 4; is-custom-font: none; font-file-url: none; fill: rgb(89,89,89); fill-rule: nonzero; opacity: 1;" transform=" translate(-427.0235, -179.0395)" d="M 452.676 136.818 H 401.37 c -4.427 0 -8.017 3.589 -8.017 8.017 v 68.409 c 0 4.427 3.589 8.017 8.017 8.017 h 51.307 c 4.427 0 8.017 -3.589 8.017 -8.017 v -68.409 C 460.693 140.408 457.104 136.818 452.676 136.818 z M 444.66 205.228 h -35.273 v -52.376 h 35.273 V 205.228 z" stroke-linecap="round"/>
</g>
		<g transform="matrix(1 0 0 1 -8.551 -132.5425)" id="Layer_1">
<path style="stroke: none; stroke-width: 1; stroke-dasharray: none; stroke-linecap: butt; stroke-dashoffset: 0; stroke-linejoin: miter; stroke-miterlimit: 4; is-custom-font: none; font-file-url: none; fill: rgb(89,89,89); fill-rule: nonzero; opacity: 1;" transform=" translate(-247.449, -123.4575)" d="M 247.449 102.614 c -4.427 0 -8.017 3.589 -8.017 8.017 v 25.653 c 0 4.427 3.589 8.017 8.017 8.017 s 8.017 -3.589 8.017 -8.017 V 110.63 C 255.466 106.203 251.876 102.614 247.449 102.614 z" stroke-linecap="round"/>
</g>
		<g transform="matrix(1 0 0 1 -42.756 -132.5425)" id="Layer_1">
<path style="stroke: none; stroke-width: 1; stroke-dasharray: none; stroke-linecap: butt; stroke-dashoffset: 0; stroke-linejoin: miter; stroke-miterlimit: 4; is-custom-font: none; font-file-url: none; fill: rgb(89,89,89); fill-rule: nonzero; opacity: 1;" transform=" translate(-213.244, -123.4575)" d="M 213.244 102.614 c -4.427 0 -8.017 3.589 -8.017 8.017 v 25.653 c 0 4.427 3.589 8.017 8.017 8.017 s 8.017 -3.589 8.017 -8.017 V 110.63 C 221.261 106.203 217.672 102.614 213.244 102.614 z" stroke-linecap="round"/>
</g>
		<g transform="matrix(1 0 0 1 -76.96 -132.5425)" id="Layer_1">
<path style="stroke: none; stroke-width: 1; stroke-dasharray: none; stroke-linecap: butt; stroke-dashoffset: 0; stroke-linejoin: miter; stroke-miterlimit: 4; is-custom-font: none; font-file-url: none; fill: rgb(89,89,89); fill-rule: nonzero; opacity: 1;" transform=" translate(-179.04, -123.4575)" d="M 179.04 102.614 c -4.427 0 -8.017 3.589 -8.017 8.017 v 25.653 c 0 4.427 3.589 8.017 8.017 8.017 s 8.017 -3.589 8.017 -8.017 V 110.63 C 187.056 106.203 183.467 102.614 179.04 102.614 z" stroke-linecap="round"/>
</g>
		<g transform="matrix(1 0 0 1 -8.551 200.9525)" id="Layer_1">
<path style="stroke: none; stroke-width: 1; stroke-dasharray: none; stroke-linecap: butt; stroke-dashoffset: 0; stroke-linejoin: miter; stroke-miterlimit: 4; is-custom-font: none; font-file-url: none; fill: rgb(89,89,89); fill-rule: nonzero; opacity: 1;" transform=" translate(-247.449, -456.9525)" d="M 247.449 436.109 c -4.427 0 -8.017 3.589 -8.017 8.017 v 25.653 c 0 4.427 3.589 8.017 8.017 8.017 s 8.017 -3.589 8.017 -8.017 v -25.653 C 255.466 439.698 251.876 436.109 247.449 436.109 z" stroke-linecap="round"/>
</g>
		<g transform="matrix(1 0 0 1 -42.756 200.9525)" id="Layer_1">
<path style="stroke: none; stroke-width: 1; stroke-dasharray: none; stroke-linecap: butt; stroke-dashoffset: 0; stroke-linejoin: miter; stroke-miterlimit: 4; is-custom-font: none; font-file-url: none; fill: rgb(89,89,89); fill-rule: nonzero; opacity: 1;" transform=" translate(-213.244, -456.9525)" d="M 213.244 436.109 c -4.427 0 -8.017 3.589 -8.017 8.017 v 25.653 c 0 4.427 3.589 8.017 8.017 8.017 s 8.017 -3.589 8.017 -8.017 v -25.653 C 221.261 439.698 217.672 436.109 213.244 436.109 z" stroke-linecap="round"/>
</g>
		<g transform="matrix(1 0 0 1 -76.96 200.9525)" id="Layer_1">
<path style="stroke: none; stroke-width: 1; stroke-dasharray: none; stroke-linecap: butt; stroke-dashoffset: 0; stroke-linejoin: miter; stroke-miterlimit: 4; is-custom-font: none; font-file-url: none; fill: rgb(89,89,89); fill-rule: nonzero; opacity: 1;" transform=" translate(-179.04, -456.9525)" d="M 179.04 436.109 c -4.427 0 -8.017 3.589 -8.017 8.017 v 25.653 c 0 4.427 3.589 8.017 8.017 8.017 s 8.017 -3.589 8.017 -8.017 v -25.653 C 187.056 439.698 183.467 436.109 179.04 436.109 z" stroke-linecap="round"/>
</g>
</g>
</g>
</svg>