<svg xmlns="http://www.w3.org/2000/svg" xmlns:xlink="http://www.w3.org/1999/xlink" version="1.1" width="15000" height="15000" viewBox="0 0 1080 1080" xml:space="preserve">
<desc>Created with Fabric.js 3.5.0</desc>
<defs>
</defs>
<rect x="0" y="0" width="100%" height="100%" fill="rgba(245,245,245,0)"/>
<g transform="matrix(20.4554 0 0 20.4554 540.0001 540)" id="318406">
<path style="stroke: none; stroke-width: 1; stroke-dasharray: none; stroke-linecap: butt; stroke-dashoffset: 0; stroke-linejoin: miter; stroke-miterlimit: 4; is-custom-font: none; font-file-url: none; fill: rgb(89,89,89); fill-rule: nonzero; opacity: 1;" vector-effect="non-scaling-stroke" transform=" translate(-23.9995, -23.999)" d="M 13.479 28.018 l 6.831 -1.735 c -1.866 -1.733 -4.511 -2.948 -4.511 -2.948 S 8.465 28.133 7 33.467 c -0.4 0.133 -0.801 0.133 -1.2 0.266 c 0.533 -6.533 3.467 -12 7.6 -13.732 c 0.399 -0.133 0.533 -0.533 0.533 -0.933 s -0.267 -0.8 -0.533 -0.934 c -4.133 -1.6 -7.066 -7.067 -7.6 -13.733 c 2.399 0.667 5.866 1.067 9.999 1.067 c 4.134 0 7.601 -0.4 10 -1.067 c -0.533 6.533 -3.466 12 -7.6 13.733 c -0.4 0.133 -0.533 0.533 -0.533 0.934 c 0 0.4 0.267 0.8 0.533 0.933 c 2 0.8 3.6 2.4 4.934 4.533 l 1.6 -0.667 c -1.199 -2.133 -2.532 -3.733 -4.267 -4.934 c 4 -2.667 6.667 -8.533 6.935 -15.2 c 0.666 -0.267 1.066 -0.667 1.066 -1.067 C 28.466 1.2 22.731 0 15.798 0 C 8.731 0 3.132 1.2 3.132 2.667 c 0 0.4 0.4 0.667 1.066 1.067 c 0.267 6.667 3.067 12.533 6.934 15.2 c -4 2.667 -6.667 8.534 -6.934 15.2 C 3.533 34.4 3.132 34.8 3.132 35.2 c 0 1.333 4.479 2.397 10.346 2.532 V 28.018 z M 31.533 25.333 l 4.4 2.534 C 35.933 27.867 35.132 25.199 31.533 25.333 z M 31.23 30.312 l -4.801 -2.799 C 25.763 31.246 31.23 30.312 31.23 30.312 z M 43.716 26.673 c 0 0 -2.584 1.595 -6.051 3.194 v 2.398 c 2 -0.933 4.135 -2 6 -3.332 L 43.716 26.673 z M 43.437 31.713 c 0 0 -2.569 1.487 -6.037 3.087 v 2.4 c 2 -0.935 4.134 -2 6 -3.2 L 43.437 31.713 z M 43.66 36.055 c 0 0 -3.193 1.812 -6.395 3.412 v 2.4 c 1.866 -0.934 4.661 -2.348 6.395 -3.547 V 36.055 z M 30.466 25.066 l 6.266 3.867 c 1.201 -0.533 4 -2.135 5.201 -2.935 L 35.4 22.133 C 35.4 22.133 33.132 23.733 30.466 25.066 z M 33.132 31.867 c -2.934 1.199 -6 2.266 -8.8 2.666 L 16.065 30 v 2.133 l 8.267 4.801 c 0 0 3.866 -0.934 8.667 -2.801 L 33.132 31.867 z M 33 36.8 c -2.934 1.2 -6 2.267 -8.801 2.667 l -8.201 -4.475 v 2.133 l 8.201 4.742 c 0 0 3.867 -0.934 8.801 -2.801 V 36.8 z M 32.867 41.467 c -3.068 1.199 -6.268 2.4 -9.201 2.801 l -7.668 -4.217 v 2.133 l 7.668 4.482 c 0 0 4.135 -1.066 9.201 -2.934 V 41.467 z M 18.333 29.467 l 6.399 3.467 c 0 0 4.135 -1.065 7.733 -2.399 l -6.399 -3.733 C 24.333 27.6 18.333 29.467 18.333 29.467 z M 44.867 29.867 L 43.933 30.4 l 0.902 0.267 V 34.4 l -0.533 0.496 l 0.533 0.399 v 3.866 c 0 0 -10.637 6.97 -21.703 8.837 l -8.618 -5.146 v -3.865 l 0.618 -0.59 l -0.563 -0.611 v -4 l 0.695 -0.188 L 14.6 32.934 v -4 c 0 0 10.533 -2 20.666 -8.399 L 44.867 26 V 29.867 z M 15.933 16.934 c 0 0 -1.467 -1.2 -3.333 -3.067 c 4.8 -1.067 8.666 -3.333 10.8 -6.267 C 21.266 12.8 15.933 16.934 15.933 16.934 z" stroke-linecap="round"/>
</g>
</svg>