<svg xmlns="http://www.w3.org/2000/svg" xmlns:xlink="http://www.w3.org/1999/xlink" version="1.1" width="1080" height="1080" viewBox="0 0 1080 1080" xml:space="preserve">
<desc>Created with Fabric.js 3.5.0</desc>
<defs>
</defs>
<rect x="0" y="0" width="100%" height="100%" fill="#f5f5f5"/>
<g transform="matrix(16.3636 0 0 16.3636 539.9989 539.9989)" id="562137">
<g style="" vector-effect="non-scaling-stroke">
		<g transform="matrix(1 0 0 1 -11 5.5)" id="Capa_1">
<path style="stroke: none; stroke-width: 1; stroke-dasharray: none; stroke-linecap: butt; stroke-dashoffset: 0; stroke-linejoin: miter; stroke-miterlimit: 4; is-custom-font: none; font-file-url: none; fill: rgb(89,89,89); fill-rule: nonzero; opacity: 1;" transform=" translate(-19, -35.5)" d="M 36 34 h 2 v -5 c 0 -5.4 -4.2 -9.8 -9.5 -10 c 0.3 -0.6 0.5 -1.3 0.5 -2 v -2 c 0 -2.2 -1.8 -4 -4 -4 H 13 c -2.2 0 -4 1.8 -4 4 v 2 c 0 0.7 0.2 1.4 0.5 2 C 4.2 19.3 0 23.6 0 29 v 21 c 0 5.5 4.5 10 10 10 h 18 v -2 H 10 c -4.4 0 -8 -3.6 -8 -8 V 29 c 0 -4.4 3.6 -8 8 -8 h 3 h 8 v -2 h -8 c -1.1 0 -2 -0.9 -2 -2 v -2 c 0 -1.1 0.9 -2 2 -2 h 12 c 1.1 0 2 0.9 2 2 v 2 c 0 1.1 -0.9 2 -2 2 c -0.6 0 -1 0.4 -1 1 s 0.4 1 1 1 h 3 c 4.4 0 8 3.6 8 8 V 34 z" stroke-linecap="round"/>
</g>
		<g transform="matrix(1 0 0 1 -11 9)" id="Capa_1">
<path style="stroke: none; stroke-width: 1; stroke-dasharray: none; stroke-linecap: butt; stroke-dashoffset: 0; stroke-linejoin: miter; stroke-miterlimit: 4; is-custom-font: none; font-file-url: none; fill: rgb(89,89,89); fill-rule: nonzero; opacity: 1;" transform=" translate(-19, -39)" d="M 18 32 h 2 c 1.7 0 3 1.3 3 3 h 2 c 0 -2.8 -2.2 -5 -5 -5 v -2 h -2 v 2 c -2.8 0 -5 2.2 -5 5 s 2.2 5 5 5 h 2 c 1.7 0 3 1.3 3 3 s -1.3 3 -3 3 h -2 c -1.7 0 -3 -1.3 -3 -3 h -2 c 0 2.8 2.2 5 5 5 v 2 h 2 v -2 c 2.8 0 5 -2.2 5 -5 s -2.2 -5 -5 -5 h -2 c -1.7 0 -3 -1.3 -3 -3 S 16.3 32 18 32 z" stroke-linecap="round"/>
</g>
		<g transform="matrix(1 0 0 1 -19 -6)" id="Capa_1">
<rect style="stroke: none; stroke-width: 1; stroke-dasharray: none; stroke-linecap: butt; stroke-dashoffset: 0; stroke-linejoin: miter; stroke-miterlimit: 4; is-custom-font: none; font-file-url: none; fill: rgb(89,89,89); fill-rule: nonzero; opacity: 1;" x="-1" y="-1" rx="0" ry="0" width="2" height="2"/>
</g>
		<g transform="matrix(1 0 0 1 -15 -6)" id="Capa_1">
<rect style="stroke: none; stroke-width: 1; stroke-dasharray: none; stroke-linecap: butt; stroke-dashoffset: 0; stroke-linejoin: miter; stroke-miterlimit: 4; is-custom-font: none; font-file-url: none; fill: rgb(89,89,89); fill-rule: nonzero; opacity: 1;" x="-1" y="-1" rx="0" ry="0" width="2" height="2"/>
</g>
		<g transform="matrix(1 0 0 1 -11 -6)" id="Capa_1">
<rect style="stroke: none; stroke-width: 1; stroke-dasharray: none; stroke-linecap: butt; stroke-dashoffset: 0; stroke-linejoin: miter; stroke-miterlimit: 4; is-custom-font: none; font-file-url: none; fill: rgb(89,89,89); fill-rule: nonzero; opacity: 1;" x="-1" y="-1" rx="0" ry="0" width="2" height="2"/>
</g>
		<g transform="matrix(1 0 0 1 -7 -6)" id="Capa_1">
<rect style="stroke: none; stroke-width: 1; stroke-dasharray: none; stroke-linecap: butt; stroke-dashoffset: 0; stroke-linejoin: miter; stroke-miterlimit: 4; is-custom-font: none; font-file-url: none; fill: rgb(89,89,89); fill-rule: nonzero; opacity: 1;" x="-1" y="-1" rx="0" ry="0" width="2" height="2"/>
</g>
		<g transform="matrix(1 0 0 1 -3 -6)" id="Capa_1">
<rect style="stroke: none; stroke-width: 1; stroke-dasharray: none; stroke-linecap: butt; stroke-dashoffset: 0; stroke-linejoin: miter; stroke-miterlimit: 4; is-custom-font: none; font-file-url: none; fill: rgb(89,89,89); fill-rule: nonzero; opacity: 1;" x="-1" y="-1" rx="0" ry="0" width="2" height="2"/>
</g>
		<g transform="matrix(1 0 0 1 -19 24)" id="Capa_1">
<rect style="stroke: none; stroke-width: 1; stroke-dasharray: none; stroke-linecap: butt; stroke-dashoffset: 0; stroke-linejoin: miter; stroke-miterlimit: 4; is-custom-font: none; font-file-url: none; fill: rgb(89,89,89); fill-rule: nonzero; opacity: 1;" x="-1" y="-1" rx="0" ry="0" width="2" height="2"/>
</g>
		<g transform="matrix(1 0 0 1 -15 24)" id="Capa_1">
<rect style="stroke: none; stroke-width: 1; stroke-dasharray: none; stroke-linecap: butt; stroke-dashoffset: 0; stroke-linejoin: miter; stroke-miterlimit: 4; is-custom-font: none; font-file-url: none; fill: rgb(89,89,89); fill-rule: nonzero; opacity: 1;" x="-1" y="-1" rx="0" ry="0" width="2" height="2"/>
</g>
		<g transform="matrix(1 0 0 1 -11 24)" id="Capa_1">
<rect style="stroke: none; stroke-width: 1; stroke-dasharray: none; stroke-linecap: butt; stroke-dashoffset: 0; stroke-linejoin: miter; stroke-miterlimit: 4; is-custom-font: none; font-file-url: none; fill: rgb(89,89,89); fill-rule: nonzero; opacity: 1;" x="-1" y="-1" rx="0" ry="0" width="2" height="2"/>
</g>
		<g transform="matrix(1 0 0 1 -7 24)" id="Capa_1">
<rect style="stroke: none; stroke-width: 1; stroke-dasharray: none; stroke-linecap: butt; stroke-dashoffset: 0; stroke-linejoin: miter; stroke-miterlimit: 4; is-custom-font: none; font-file-url: none; fill: rgb(89,89,89); fill-rule: nonzero; opacity: 1;" x="-1" y="-1" rx="0" ry="0" width="2" height="2"/>
</g>
		<g transform="matrix(1 0 0 1 -3 24)" id="Capa_1">
<rect style="stroke: none; stroke-width: 1; stroke-dasharray: none; stroke-linecap: butt; stroke-dashoffset: 0; stroke-linejoin: miter; stroke-miterlimit: 4; is-custom-font: none; font-file-url: none; fill: rgb(89,89,89); fill-rule: nonzero; opacity: 1;" x="-1" y="-1" rx="0" ry="0" width="2" height="2"/>
</g>
		<g transform="matrix(1 0 0 1 17 15)" id="Capa_1">
<path style="stroke: none; stroke-width: 1; stroke-dasharray: none; stroke-linecap: butt; stroke-dashoffset: 0; stroke-linejoin: miter; stroke-miterlimit: 4; is-custom-font: none; font-file-url: none; fill: rgb(89,89,89); fill-rule: nonzero; opacity: 1;" transform=" translate(-47, -45)" d="M 59 30 H 47 c -0.6 0 -1 0.4 -1 1 v 4 v 3 H 35 c -0.6 0 -1 0.4 -1 1 v 4 v 4 v 4 v 4 v 4 c 0 0.6 0.4 1 1 1 h 12 h 12 c 0.6 0 1 -0.4 1 -1 v -4 v -4 v -4 v -4 v -4 v -4 v -4 C 60 30.4 59.6 30 59 30 z M 48 36 h 10 v 2 H 48 V 36 z M 58 40 v 2 H 48 v -2 H 58 z M 58 46 H 48 v -2 h 10 V 46 z M 58 50 H 48 v -2 h 10 V 50 z M 36 48 h 10 v 2 H 36 V 48 z M 46 46 H 36 v -2 h 10 V 46 z M 36 52 h 10 v 2 H 36 V 52 z M 48 52 h 10 v 2 H 48 V 52 z M 48 32 h 10 v 2 H 48 V 32 z M 36 40 h 10 v 2 H 36 V 40 z M 36 56 h 10 v 2 H 36 V 56 z M 58 58 H 48 v -2 h 10 V 58 z" stroke-linecap="round"/>
</g>
		<g transform="matrix(1 0 0 1 18 -16)" id="Capa_1">
<path style="stroke: none; stroke-width: 1; stroke-dasharray: none; stroke-linecap: butt; stroke-dashoffset: 0; stroke-linejoin: miter; stroke-miterlimit: 4; is-custom-font: none; font-file-url: none; fill: rgb(89,89,89); fill-rule: nonzero; opacity: 1;" transform=" translate(-48, -14)" d="M 59 0 H 37 c -0.6 0 -1 0.4 -1 1 v 18 c 0 0.3 0.2 0.6 0.4 0.8 l 11 8 c 0.2 0.1 0.4 0.2 0.6 0.2 s 0.4 -0.1 0.6 -0.2 l 11 -8 c 0.2 -0.2 0.4 -0.5 0.4 -0.8 V 1 C 60 0.4 59.6 0 59 0 z M 58 2 v 6 H 38 V 2 H 58 z M 48 25.8 l -10 -7.3 V 10 h 20 v 8.5 L 48 25.8 z" stroke-linecap="round"/>
</g>
		<g transform="matrix(1 0 0 1 12 -25)" id="Capa_1">
<rect style="stroke: none; stroke-width: 1; stroke-dasharray: none; stroke-linecap: butt; stroke-dashoffset: 0; stroke-linejoin: miter; stroke-miterlimit: 4; is-custom-font: none; font-file-url: none; fill: rgb(89,89,89); fill-rule: nonzero; opacity: 1;" x="-1" y="-1" rx="0" ry="0" width="2" height="2"/>
</g>
		<g transform="matrix(1 0 0 1 16 -25)" id="Capa_1">
<rect style="stroke: none; stroke-width: 1; stroke-dasharray: none; stroke-linecap: butt; stroke-dashoffset: 0; stroke-linejoin: miter; stroke-miterlimit: 4; is-custom-font: none; font-file-url: none; fill: rgb(89,89,89); fill-rule: nonzero; opacity: 1;" x="-1" y="-1" rx="0" ry="0" width="2" height="2"/>
</g>
		<g transform="matrix(1 0 0 1 20 -25)" id="Capa_1">
<rect style="stroke: none; stroke-width: 1; stroke-dasharray: none; stroke-linecap: butt; stroke-dashoffset: 0; stroke-linejoin: miter; stroke-miterlimit: 4; is-custom-font: none; font-file-url: none; fill: rgb(89,89,89); fill-rule: nonzero; opacity: 1;" x="-1" y="-1" rx="0" ry="0" width="2" height="2"/>
</g>
		<g transform="matrix(1 0 0 1 24 -25)" id="Capa_1">
<rect style="stroke: none; stroke-width: 1; stroke-dasharray: none; stroke-linecap: butt; stroke-dashoffset: 0; stroke-linejoin: miter; stroke-miterlimit: 4; is-custom-font: none; font-file-url: none; fill: rgb(89,89,89); fill-rule: nonzero; opacity: 1;" x="-1" y="-1" rx="0" ry="0" width="2" height="2"/>
</g>
		<g transform="matrix(1 0 0 1 18.5 -13.9)" id="Capa_1">
<path style="stroke: none; stroke-width: 1; stroke-dasharray: none; stroke-linecap: butt; stroke-dashoffset: 0; stroke-linejoin: miter; stroke-miterlimit: 4; is-custom-font: none; font-file-url: none; fill: rgb(89,89,89); fill-rule: nonzero; opacity: 1;" transform=" translate(-48.5, -16.1)" d="M 46.8 17.6 l -2.3 -1.5 l -1.1 1.7 l 3 2 c 0.2 0.1 0.4 0.2 0.6 0.2 c 0.3 0 0.5 -0.1 0.6 -0.4 l 6 -6 l -1.4 -1.4 L 46.8 17.6 z" stroke-linecap="round"/>
</g>
</g>
</g>
</svg>