<svg xmlns="http://www.w3.org/2000/svg" xmlns:xlink="http://www.w3.org/1999/xlink" version="1.1" width="1080" height="1080" viewBox="0 0 1080 1080" xml:space="preserve">
<desc>Created with Fabric.js 3.5.0</desc>
<defs>
</defs>
<rect x="0" y="0" width="100%" height="100%" fill="#f5f5f5"/>
<g transform="matrix(7.6705 0 0 7.6705 540.0029 540.0029)" id="791685">
<g style="" vector-effect="non-scaling-stroke">
		<g transform="matrix(1 0 0 1 -33.5 -39.5)" id="_x32_">
<circle style="stroke: none; stroke-width: 1; stroke-dasharray: none; stroke-linecap: butt; stroke-dashoffset: 0; stroke-linejoin: miter; stroke-miterlimit: 4; is-custom-font: none; font-file-url: none; fill: rgb(89,89,89); fill-rule: nonzero; opacity: 1;" cx="0" cy="0" r="8.9"/>
</g>
		<g transform="matrix(1 0 0 1 -21.55 14.8)" id="_x31__1_">
<path style="stroke: none; stroke-width: 1; stroke-dasharray: none; stroke-linecap: butt; stroke-dashoffset: 0; stroke-linejoin: miter; stroke-miterlimit: 4; is-custom-font: none; font-file-url: none; fill: rgb(89,89,89); fill-rule: nonzero; opacity: 1;" transform=" translate(-42.45, -78.8)" d="M 8.3 46.7 v 27.1 c 0 2.1 1.8 3.9 3.9 3.9 s 3.9 -1.8 3.9 -3.9 V 48.9 c 0 -0.7 0.4 -1.1 1.1 -1.1 c 0.7 0 1.1 0.4 1.1 1.1 v 67.6 c 0 3.1 2.4 5.5 5.5 5.5 s 5.5 -2.4 5.5 -5.5 V 77.7 c 0 -0.7 0.4 -1.1 1.1 -1.1 s 1.1 0.4 1.1 1.1 v 38.7 c 0 3.1 2.4 5.5 5.5 5.5 s 5.5 -2.4 5.5 -5.5 V 47.7 c 0 -0.7 0.4 -1.1 1.1 -1.1 c 0.3 0 0.6 0.1 0.8 0.3 l 7.9 7.9 c 0.7 0.7 1.7 1.1 2.7 1.1 h 17.7 c 2.1 0 3.9 -1.8 3.9 -3.9 c 0 -2.1 -1.8 -3.9 -3.9 -3.9 H 56.7 c 0 0 -9.2 -9.2 -9.3 -9.3 c -2.2 -2.1 -5 -3.2 -7.9 -3.2 H 19.4 C 13.3 35.6 8.3 40.6 8.3 46.7 z" stroke-linecap="round"/>
</g>
		<g transform="matrix(1 0 0 1 36.6 -20.45)" id="_x31_">
<path style="stroke: none; stroke-width: 1; stroke-dasharray: none; stroke-linecap: butt; stroke-dashoffset: 0; stroke-linejoin: miter; stroke-miterlimit: 4; is-custom-font: none; font-file-url: none; fill: rgb(89,89,89); fill-rule: nonzero; opacity: 1;" transform=" translate(-100.6, -43.55)" d="M 79.7 6 v 75.1 h 41.8 V 6 H 79.7 z M 85.9 55.3 c 0 -1.4 1.1 -2.5 2.5 -2.5 s 2.5 1.1 2.5 2.5 c 0 1.4 -1.1 2.5 -2.5 2.5 S 85.9 56.7 85.9 55.3 z M 84.9 11 h 31.4 v 37.5 H 84.9 V 11 z" stroke-linecap="round"/>
</g>
</g>
</g>
</svg>